<?xml version="1.0" encoding="UTF-8" standalone="no"?><!DOCTYPE svg PUBLIC "-//W3C//DTD SVG 1.1//EN" "http://www.w3.org/Graphics/SVG/1.1/DTD/svg11.dtd"><svg width="100%" height="100%" viewBox="0 0 4267 4267" version="1.1" xmlns="http://www.w3.org/2000/svg" xmlns:xlink="http://www.w3.org/1999/xlink" xml:space="preserve" xmlns:serif="http://www.serif.com/" style="fill-rule:evenodd;clip-rule:evenodd;stroke-linecap:round;stroke-linejoin:round;stroke-miterlimit:1.5;"><path d="M4266.667,687.653l0,2891.361c0,379.526 -308.127,687.653 -687.653,687.653l-2891.361,0c-379.526,0 -687.653,-308.127 -687.653,-687.653l0,-2891.361c0,-379.526 308.127,-687.653 687.653,-687.653l2891.361,0c379.526,0 687.653,308.127 687.653,687.653Z" style="fill:#3d4a52;stroke:#212629;stroke-width:312.5px;"/><path d="M2843.533,2005.333c2.592,-258.975 187.883,-312.783 410.85,-307.083c144.133,4.692 277.125,-28.425 386.608,90.092c93.425,101.133 79.583,197.533 78.675,324.742c-1,139.083 23.525,259.217 -92.575,363.817c-93.917,84.617 -152.392,83.842 -270.758,83.433l-217.708,0c-209.708,-3.258 -293.567,-160.983 -295.092,-345.1l0,-209.9Z" style="fill:#e33913;fill-rule:nonzero;"/><path d="M902.683,1698.25c49.967,0.092 134.658,2.942 181.8,0c155.125,-2.175 274.175,70.925 329.492,219.942c15.8,42.567 -9.483,78.567 30.008,79.125c-7.908,0.417 -12.742,-0.775 -18.267,2.95c-2.8,67.033 2.233,139.592 -0.258,206.067c-4.2,25.45 -0.792,53.1 -3.45,78.642c-16.95,162.892 -163.992,281.725 -322,282.542l-151.042,-0.633c-235.578,0.192 -400.053,-74.567 -400.81,-336.842l-0.076,-165.458c-0.347,-260.425 87.251,-366.058 354.602,-366.333Zm229.092,629.858c84.017,-18.125 61.617,-137.925 61.65,-200.8c0.025,-49.158 19.375,-165.508 -35.825,-192.892c-37.258,-18.475 -240.133,-12.15 -293.092,-11.5c-41.258,8.625 -63.497,27.558 -65.149,70.942c-2.057,53.892 -21.424,294.817 31.025,321.367c39.091,19.792 244.707,15.458 301.391,12.883Z" style="fill:#f2b109;fill-rule:nonzero;"/><path d="M2027.8,1723.542c42.033,-9.675 61.017,-14.75 105.675,-14.833c32.45,0.567 82.533,4.342 113.583,14.833c4.942,4.242 4.592,2.675 9.942,4.142c135.533,37.258 225.742,150.383 271.067,277.65c14.375,-0.658 43.483,-2.817 56.4,0c85.492,5.7 173.25,-2.1 259.067,0l0,209.9l-315.467,0c-30.917,153.5 -142.542,243.825 -281.008,294.508l0.15,208.008c0.017,18.758 1.567,81.775 -0.15,96.767l-208.8,0c6.933,-2.65 10.542,-2.517 17.833,-3.083c-37.275,-3.958 -21.55,-81.975 -22.775,-113.067c-2.442,-61.925 -3.017,-123.833 -7.292,-185.617c-0.542,-7.733 -69.808,-34.85 -78.183,-40.95c-98.917,-54.675 -169.875,-146.158 -192.517,-257.542c-2.792,-13.75 -46.267,1.317 -59.492,-7.925c15.842,-0.758 38.233,-0.017 54.6,0c-25.5,-72.092 -10.142,-137.242 0,-209.017c16.283,-8.058 61.533,-183.317 214.983,-246.05c13.083,-5.35 56.375,-17.033 62.383,-27.725Z" style="fill:#dedede;fill-rule:nonzero;"/><path d="M2027.8,1723.542c42.033,-9.675 61.017,-14.75 105.675,-14.833l0,1105.808l-95.217,0c6.933,-2.65 10.542,-2.517 17.833,-3.083c-37.275,-3.958 -21.55,-81.975 -22.775,-113.067c-2.442,-61.925 -3.017,-123.833 -7.292,-185.617c-0.542,-7.733 -69.808,-34.85 -78.183,-40.95c-98.917,-54.675 -169.875,-146.158 -192.517,-257.542c-2.792,-13.75 -46.267,1.317 -59.492,-7.925c15.842,-0.758 38.233,-0.017 54.6,0c-25.5,-72.092 -10.142,-137.242 0,-209.017c16.283,-8.058 61.533,-183.317 214.983,-246.05c13.083,-5.35 56.375,-17.033 62.383,-27.725Z" style="fill:#fefefe;fill-rule:nonzero;"/><path d="M2843.533,2005.333l0,209.9l-315.467,0c28.442,-62.792 11.775,-145.983 0,-209.9c18.967,0.275 37.442,0.2 56.4,0c85.492,5.7 173.25,-2.1 259.067,0Z" style="fill:#f2b109;fill-rule:nonzero;"/><path d="M2038.258,2814.517l208.8,0c187.817,8.108 317.142,155.467 321.925,338.925l0,199.542c-1.475,70.775 -39.392,153.933 -90.992,202.783c-112.092,106.117 -203.783,92.45 -344.517,92.108c-130.767,0.333 -241.525,10.733 -343.967,-89.775c-70.608,-69.267 -93.208,-153.342 -93.725,-249.458l0.008,-113.917c0.058,-214.575 114.408,-379.15 342.467,-380.208Z" style="fill:#e65e02;fill-rule:nonzero;"/><path d="M2038.258,2814.517l95.217,0l-0.125,737.342c-0.075,26.133 -1.708,71.683 0.125,96.017c-130.767,0.333 -241.525,10.733 -343.967,-89.775c-70.608,-69.267 -93.208,-153.342 -93.725,-249.458l0.008,-113.917c0.058,-214.575 114.408,-379.15 342.467,-380.208Z" style="fill:#f76d06;fill-rule:nonzero;"/><path d="M1695.833,913.442c6.383,-78.458 40.1,-151.505 96.558,-205.684c114.742,-110.099 197.717,-97.645 341.083,-97.324c99.333,-0.174 177.525,-9.326 269.517,43.231c94.817,54.178 163.575,153.128 168.583,264.686c-3.975,64.1 4.842,124.625 2.167,180.725c-8.192,171.775 -156.433,315.458 -326.683,320.225c-36.35,0.958 -76.9,0.025 -113.583,0c-31.467,0.267 -75.325,2.208 -105.675,0c-5.075,-3.8 -2.317,-1.683 -8.467,-1.792c-173.542,-3.117 -317.292,-149.483 -323.5,-318.367l0,-185.7Z" style="fill:#f2b109;fill-rule:nonzero;"/><path d="M1695.833,913.442c6.383,-78.458 40.1,-151.505 96.558,-205.684c114.742,-110.099 197.717,-97.645 341.083,-97.324c2.633,64.451 -0.4,146.828 0,213.04l0,595.827c-17.85,-0.475 -91.942,-2.267 -105.675,0c-5.075,-3.8 -2.317,-1.683 -8.467,-1.792c-173.542,-3.117 -317.292,-149.483 -323.5,-318.367l0,-185.7Z" style="fill:#fdc901;fill-rule:nonzero;"/><path d="M902.683,1338.258l-3.567,-1.192c-360.658,-122.25 -364.959,-555.702 -66.142,-693.581c174.65,-80.587 387.375,-7.658 475.75,163.435c16.2,31.254 29.258,64.863 44.383,96.746c-5.092,73.133 9.783,99.758 -12.192,178.85c-42.467,137.342 -131.025,200.958 -256.433,255.742l-0.133,259.142c0.133,32.517 -2.425,69.233 0.133,100.85c-47.142,2.942 -131.833,0.092 -181.8,0c2.75,-36.033 0.125,-83.533 0.058,-121.358l-0.058,-238.633Zm106.833,-191.525c93.6,-13.583 158.467,-100.458 144.9,-194.05c-13.567,-93.592 -100.425,-158.479 -194.025,-144.93c-93.617,13.553 -158.519,100.438 -144.952,194.055c13.568,93.617 100.468,158.508 194.077,144.925Z" style="fill:#dedede;fill-rule:nonzero;"/><path d="M3179.225,2913.192c57.183,-15.042 117.125,-16.275 174.883,-3.592c181.267,39.808 305.7,206.833 291.975,391.917c-13.725,185.083 -161.442,331.917 -346.6,344.55c-185.158,12.625 -351.442,-112.792 -390.175,-294.3c-12,-56.267 -10.833,-114.55 3.433,-170.292c33.55,-131.167 135.55,-233.842 266.483,-268.283Z" style="fill:#bdbcbc;fill-rule:nonzero;"/><path d="M3252.25,3101.283c96.275,-11.017 183.158,58.317 193.783,154.633c10.625,96.317 -59.058,182.917 -155.417,193.15c-95.808,10.167 -181.8,-59.025 -192.367,-154.783c-10.558,-95.767 58.283,-182.042 154,-193Z" style="fill:#fefefe;fill-rule:nonzero;"/><path d="M1443.983,1997.317l203.908,0.142c27.525,0.05 77.45,1.833 102.542,-0.142c-10.142,71.775 -25.5,136.925 0,209.017c-16.367,-0.017 -38.758,-0.758 -54.6,0l-270.375,0c2.492,-66.475 -2.542,-139.033 0.258,-206.067c5.525,-3.725 10.358,-2.533 18.267,-2.95Z" style="fill:#f76d06;fill-rule:nonzero;"/><path d="M2133.475,1419.3c36.683,0.025 77.233,0.958 113.583,0l0,304.242c-31.05,-10.492 -81.133,-14.267 -113.583,-14.833c-44.658,0.083 -63.642,5.158 -105.675,14.833l0,-304.242c30.35,2.208 74.208,0.267 105.675,0Z" style="fill:#e33913;fill-rule:nonzero;"/><path d="M2027.8,1419.3c30.35,2.208 74.208,0.267 105.675,0c-1.092,95.7 0.025,193.45 0,289.408c-44.658,0.083 -63.642,5.158 -105.675,14.833l0,-304.242Z" style="fill:#e65e02;fill-rule:nonzero;"/><path d="M1353.108,903.667c69.575,-4.825 306.608,-5.55 342.725,9.775l0,185.7c-2.833,-10.817 0.725,-10.85 -4.975,-17.783c-101.092,3.383 -249.067,8.667 -349.942,1.158c21.975,-79.092 7.1,-105.717 12.192,-178.85Z" style="fill:#fefefe;fill-rule:nonzero;"/><path d="M3138.625,2560.333l217.708,0c-0.058,37.967 2.692,335.442 -2.225,349.267c-57.758,-12.683 -117.7,-11.45 -174.883,3.592c-4.733,-109.375 -1.825,-241.675 -2.092,-352.858c-12.417,0.808 -26.492,2.475 -38.508,0Z" style="fill:#dedede;fill-rule:nonzero;"/><path d="M2568.983,3153.442c0.825,10.708 0.808,15.108 0,25.817c111.142,2.817 231.925,3.458 343.758,2.217c-14.267,55.742 -15.433,114.025 -3.433,170.292l-234.867,0.375c-19.083,-0.008 -90.55,-1.283 -105.458,0.842l0,-199.542Z" style="fill:#dedede;fill-rule:nonzero;"/></svg>